<svg xmlns="http://www.w3.org/2000/svg" viewBox="0 0 1200 675"><defs><linearGradient id="b"><stop stop-color="#21130f"/><stop offset="1" stop-color="#6f3923"/></linearGradient><radialGradient id="skin"><stop stop-color="#e1a079"/><stop offset="1" stop-color="#8f5039"/></radialGradient></defs><rect width="1200" height="675" fill="url(#b)"/><ellipse cx="650" cy="320" rx="180" ry="235" fill="url(#skin)"/><path d="M450 280c25-205 335-290 405-45-70-70-120-105-210-100-95 5-150 55-195 145z" fill="#251611"/><path d="M470 350c-35 160-60 230-180 325h580c-100-90-115-190-120-325-65 110-215 115-280 0z" fill="#17110f"/><ellipse cx="590" cy="300" rx="22" ry="10" fill="#2b211c"/><ellipse cx="715" cy="300" rx="22" ry="10" fill="#2b211c"/><path d="M610 405q45 25 90 0" fill="none" stroke="#7c3f38" stroke-width="8" stroke-linecap="round"/></svg>